<svg width="20" height="20" viewBox="0 0 20 20" fill="none" xmlns="http://www.w3.org/2000/svg">
<path fill-rule="evenodd" clip-rule="evenodd" d="M5.696 4.078L5.398 5H4.5C3.70435 5 2.94129 5.31607 2.37868 5.87868C1.81607 6.44129 1.5 7.20435 1.5 8V14C1.5 14.7956 1.81607 15.5587 2.37868 16.1213C2.94129 16.6839 3.70435 17 4.5 17H15.5C16.2956 17 17.0587 16.6839 17.6213 16.1213C18.1839 15.5587 18.5 14.7956 18.5 14V8C18.5 7.20435 18.1839 6.44129 17.6213 5.87868C17.0587 5.31607 16.2956 5 15.5 5H14.601L14.304 4.078C14.109 3.47423 13.7276 2.94783 13.2146 2.57445C12.7016 2.20108 12.0835 1.99996 11.449 2H8.55C7.91552 1.99996 7.29737 2.20108 6.78438 2.57445C6.2714 2.94783 5.891 3.47423 5.696 4.078ZM4.5 7H6.854L7.6 4.693C7.66491 4.49179 7.79191 4.31633 7.96278 4.19182C8.13365 4.0673 8.33958 4.00015 8.551 4H11.449C11.6604 4.00015 11.8664 4.0673 12.0372 4.19182C12.2081 4.31633 12.3351 4.49179 12.4 4.693L13.145 7H15.5C15.7652 7 16.0196 7.10536 16.2071 7.29289C16.3946 7.48043 16.5 7.73478 16.5 8V14C16.5 14.2652 16.3946 14.5196 16.2071 14.7071C16.0196 14.8946 15.7652 15 15.5 15H4.5C4.23478 15 3.98043 14.8946 3.79289 14.7071C3.60536 14.5196 3.5 14.2652 3.5 14V8C3.5 7.73478 3.60536 7.48043 3.79289 7.29289C3.98043 7.10536 4.23478 7 4.5 7Z" fill="black"/>
<path fill-rule="evenodd" clip-rule="evenodd" d="M6.5 10.5C6.5 10.9596 6.59053 11.4148 6.76642 11.8394C6.94231 12.264 7.20012 12.6499 7.52513 12.9749C7.85013 13.2999 8.23597 13.5577 8.66061 13.7336C9.08525 13.9095 9.54037 14 10 14C10.4596 14 10.9148 13.9095 11.3394 13.7336C11.764 13.5577 12.1499 13.2999 12.4749 12.9749C12.7999 12.6499 13.0577 12.264 13.2336 11.8394C13.4095 11.4148 13.5 10.9596 13.5 10.5C13.5 9.57174 13.1313 8.6815 12.4749 8.02513C11.8185 7.36875 10.9283 7 10 7C9.07174 7 8.1815 7.36875 7.52513 8.02513C6.86875 8.6815 6.5 9.57174 6.5 10.5ZM11.5 10.5C11.5 10.8978 11.342 11.2794 11.0607 11.5607C10.7794 11.842 10.3978 12 10 12C9.60218 12 9.22064 11.842 8.93934 11.5607C8.65804 11.2794 8.5 10.8978 8.5 10.5C8.5 10.1022 8.65804 9.72064 8.93934 9.43934C9.22064 9.15804 9.60218 9 10 9C10.3978 9 10.7794 9.15804 11.0607 9.43934C11.342 9.72064 11.5 10.1022 11.5 10.5Z" fill="black"/>
</svg>
