<svg width="20" height="20" viewBox="0 0 20 20" fill="none" xmlns="http://www.w3.org/2000/svg">
<path fill-rule="evenodd" clip-rule="evenodd" d="M11.5 4H4.5C3.70435 4 2.94129 4.31607 2.37868 4.87868C1.81607 5.44129 1.5 6.20435 1.5 7V13C1.5 13.7956 1.81607 14.5587 2.37868 15.1213C2.94129 15.6839 3.70435 16 4.5 16H11.5C12.2956 16 13.0587 15.6839 13.6213 15.1213C14.1839 14.5587 14.5 13.7956 14.5 13V7C14.5 6.20435 14.1839 5.44129 13.6213 4.87868C13.0587 4.31607 12.2956 4 11.5 4ZM3.5 7C3.5 6.73478 3.60536 6.48043 3.79289 6.29289C3.98043 6.10536 4.23478 6 4.5 6H11.5C11.7652 6 12.0196 6.10536 12.2071 6.29289C12.3946 6.48043 12.5 6.73478 12.5 7V13C12.5 13.2652 12.3946 13.5196 12.2071 13.7071C12.0196 13.8946 11.7652 14 11.5 14H4.5C4.23478 14 3.98043 13.8946 3.79289 13.7071C3.60536 13.5196 3.5 13.2652 3.5 13V7Z" fill="black"/>
<path fill-rule="evenodd" clip-rule="evenodd" d="M16.934 5.1756L13.466 7.5566C13.3335 7.64756 13.2249 7.76913 13.1493 7.91101C13.0738 8.05288 13.0336 8.21087 13.032 8.37159L13 11.5866C12.9985 11.7505 13.0372 11.9123 13.1129 12.0578C13.1886 12.2032 13.2989 12.3278 13.434 12.4206L16.934 14.8236C17.0842 14.9267 17.2596 14.9868 17.4414 14.9975C17.6233 15.0081 17.8045 14.969 17.9657 14.8842C18.1269 14.7994 18.2618 14.6721 18.356 14.5163C18.4502 14.3604 18.5 14.1817 18.5 13.9996V5.9996C18.5 5.81747 18.4502 5.63883 18.356 5.48294C18.2618 5.32705 18.1269 5.19984 17.9657 5.11503C17.8045 5.03023 17.6233 4.99105 17.4414 5.00172C17.2596 5.01239 17.0842 5.07251 16.934 5.1756ZM16.5 12.0996L15.005 11.0736L15.027 8.9106L16.5 7.8996V12.0996Z" fill="black"/>
</svg>
