<svg width="34" height="34" viewBox="0 0 34 34" fill="none" xmlns="http://www.w3.org/2000/svg">
<circle cx="17" cy="17" r="17" fill="white"/>
<path d="M16.9684 12.8774C17.2517 12.5992 17.588 12.3786 17.9581 12.228C18.3283 12.0775 18.725 12 19.1257 12C19.5263 12 19.923 12.0775 20.2932 12.228C20.6633 12.3786 20.9997 12.5992 21.283 12.8774C21.5663 13.1555 21.791 13.4857 21.9443 13.8492C22.0977 14.2126 22.1766 14.6021 22.1766 14.9955C22.1766 15.3889 22.0977 15.7784 21.9443 16.1418C21.791 16.5052 21.5663 16.8355 21.283 17.1136L16.3582 21.9917H12V17.7127L16.9684 12.8774Z" stroke="black" stroke-width="2.5" stroke-linecap="round" stroke-linejoin="round"/>
</svg>
